<svg xmlns="http://www.w3.org/2000/svg" version="1.1" xmlns:xlink="http://www.w3.org/1999/xlink" xmlns:svgjs="http://svgjs.dev/svgjs" width="100%" height="100%" viewBox="0 0 1000 600"><rect width="1000" height="600" x="0" y="0" fill="#86c481"/><g><circle r="166.66666666666666" cx="335.4040171305338" cy="357.62625406581503" fill="#ffffff" transform="matrix(0.7407962481030989,0,0,0.740796248103099,0,35.071805790860054)"/><path d="M335.21673714510075 432.6262741792558L335.21673714510075 432.6262741792558Q314.8748245045968 432.6262741792558 299.83448682988995 423.3773308965338Q284.79414915518305 414.1572005212346 276.61128344710505 397.3592754937363Q268.39960483160417 380.561350466238 268.39960483160417 357.51102452798995L268.39960483160417 357.51102452798995Q268.39960483160417 340.10802844461267 273.06729583409935 326.3066457890866Q277.7349868365946 312.5052631335606 286.46529778570607 302.8529391469192Q295.1667958273947 293.20061516027783 307.4987202043574 287.92785310190357Q319.8594574887429 282.6262781361065 335.21673714510075 282.6262781361065L335.21673714510075 282.6262781361065Q355.962030489524 282.6262781361065 371.00236816423086 291.7599697891373Q386.0427058389377 300.89366144216814 394.22557154701576 317.5763348399752Q402.4084372550939 334.28782114520504 402.4084372550939 357.3093341760303L402.4084372550939 357.3093341760303Q402.4084372550939 374.7411431668304 397.6543075303302 388.62896454462486Q392.8713648981437 402.5455988298421 384.1698668564551 412.2843615387519Q375.4395559073436 422.0519371550845 363.1076315303809 427.32469921345876Q350.7757071534182 432.6262741792558 335.21673714510075 432.6262741792558ZM335.21673714510075 417.47068487485774L335.21673714510075 417.47068487485774Q350.97739750537784 417.47068487485774 361.8686765112001 410.41152255626923Q372.75995551702226 403.3811731451036 378.55134990900706 389.89673247122846Q384.37155720841474 376.41229179735336 384.37155720841474 357.51102452798995L384.37155720841474 357.51102452798995Q384.37155720841474 329.1014978090992 371.6074392201099 313.4272761710905Q358.843321231805 297.78186744050464 335.21673714510075 297.78186744050464L335.21673714510075 297.78186744050464Q319.8594574887429 297.78186744050464 308.96817848292073 304.8410297590931Q298.07689947709855 311.87137917025876 292.25669217769087 325.2693811218654Q286.46529778570607 338.63857016604936 286.46529778570607 357.51102452798995L286.46529778570607 357.51102452798995Q286.46529778570607 385.7476738023438 299.31585449627937 401.5947728848894Q312.1664112068527 417.47068487485774 335.21673714510075 417.47068487485774Z " fill="#407d53" transform="matrix(0.7407962481030989,0,0,0.740796248103099,0,35.071805790860054)"/><path d="M652.2211545645343 432.6262741792558L652.2211545645343 432.6262741792558Q631.8792419240303 432.6262741792558 616.8389042493235 423.3773308965338Q601.7985665746166 414.1572005212346 593.6157008665386 397.3592754937363Q585.4040222510378 380.561350466238 585.4040222510378 357.51102452798995L585.4040222510378 357.51102452798995Q585.4040222510378 340.10802844461267 590.071713253533 326.3066457890866Q594.7394042560281 312.5052631335606 603.4697152051397 302.8529391469192Q612.1712132468283 293.20061516027783 624.503137623791 287.92785310190357Q636.8638749081765 282.6262781361065 652.2211545645343 282.6262781361065L652.2211545645343 282.6262781361065Q672.9664479089575 282.6262781361065 688.0067855836644 291.7599697891373Q703.0471232583712 300.89366144216814 711.2299889664494 317.5763348399752Q719.4128546745274 334.28782114520504 719.4128546745274 357.3093341760303L719.4128546745274 357.3093341760303Q719.4128546745274 374.7411431668304 714.6587249497637 388.62896454462486Q709.8757823175773 402.5455988298421 701.1742842758886 412.2843615387519Q692.4439733267772 422.0519371550845 680.1120489498145 427.32469921345876Q667.7801245728517 432.6262741792558 652.2211545645343 432.6262741792558ZM652.2211545645343 417.47068487485774L652.2211545645343 417.47068487485774Q667.9818149248114 417.47068487485774 678.8730939306336 410.41152255626923Q689.7643729364559 403.3811731451036 695.5557673284407 389.89673247122846Q701.3759746278483 376.41229179735336 701.3759746278483 357.51102452798995L701.3759746278483 357.51102452798995Q701.3759746278483 329.1014978090992 688.6118566395435 313.4272761710905Q675.8477386512386 297.78186744050464 652.2211545645343 297.78186744050464L652.2211545645343 297.78186744050464Q636.8638749081765 297.78186744050464 625.9725959023543 304.8410297590931Q615.0813168965321 311.87137917025876 609.2611095971245 325.2693811218654Q603.4697152051397 338.63857016604936 603.4697152051397 357.51102452798995L603.4697152051397 357.51102452798995Q603.4697152051397 385.7476738023438 616.320271915713 401.5947728848894Q629.1708286262863 417.47068487485774 652.2211545645343 417.47068487485774ZM758.4255313250122 432.1940805679137L758.4255313250122 432.1940805679137Q754.2764726561276 432.1940805679137 752.086691691994 429.8314221592433Q749.9257236352832 427.43995084315003 749.9257236352832 423.2908921742653L749.9257236352832 423.2908921742653L749.9257236352832 291.7599697891373Q749.9257236352832 287.409220768293 752.086691691994 285.21943980415944Q754.2764726561276 283.05847174744866 758.4255313250122 283.05847174744866L758.4255313250122 283.05847174744866Q762.5745899938969 283.05847174744866 764.7643709580304 285.21943980415944Q766.9253390147412 287.409220768293 766.9253390147412 291.7599697891373L766.9253390147412 291.7599697891373L766.9253390147412 350.88405582074364L767.3575326260834 350.88405582074364L834.9814263474187 287.81260147221235Q837.4593363857804 285.3346914338507 839.9660593315648 284.18217513693827Q842.4439693699264 283.05847174744866 845.3540730196303 283.05847174744866L845.3540730196303 283.05847174744866Q849.3014413365553 283.05847174744866 851.0590286893466 284.9024978225085Q852.8166160421381 286.7753368049912 852.4132353382188 289.4837501027353Q851.9810417268766 292.16335049305667 849.5031316885149 294.67007343884114L849.5031316885149 294.67007343884114L778.7674439655162 360.2194378257341L778.9691343174759 351.0857461727033L852.8166160421381 419.3435238573404Q855.9284100438016 422.2536275070442 856.1301003957612 425.2501698790165Q856.331790747721 428.2755251584115 854.3725130429698 430.2348028631626Q852.4132353382188 432.1940805679137 848.4658670212938 432.1940805679137L848.4658670212938 432.1940805679137Q845.3540730196303 432.1940805679137 843.1642920554967 430.86868682646445Q841.003323998786 429.5144801775923 838.2949107010418 426.80606687984823L838.2949107010418 426.80606687984823L767.3575326260834 361.8905864562571L766.9253390147412 361.8905864562571L766.9253390147412 423.2908921742653Q766.9253390147412 427.43995084315003 764.8508096802989 429.8314221592433Q762.7762803458565 432.1940805679137 758.4255313250122 432.1940805679137ZM921.2760840787348 432.6262741792558L921.2760840787348 432.6262741792558Q911.5373213698251 432.6262741792558 902.2019393648346 430.95512554873284Q892.8665573598441 429.31278982563265 884.8565690963029 426.20099582396915Q876.8753937401846 423.0892018223057 870.4501153848978 418.30625919011925L870.4501153848978 418.30625919011925Q867.9722053465362 416.4334202076366 867.0213794015835 414.04194889154337Q866.0993663640536 411.67929048287294 866.6179986976641 409.2878191667797Q867.1366310312746 406.8963478506864 868.6925280321065 405.22519922016346Q870.2484250329383 403.5828634970633 872.5246447193402 403.3811731451036Q874.8008644057422 403.15066988572113 877.5092777034863 404.8218185162441L877.5092777034863 404.8218185162441Q886.8446597084769 411.4487872234904 897.4189967326481 414.47414250288546Q907.9933337568194 417.47068487485774 921.2760840787348 417.47068487485774L921.2760840787348 417.47068487485774Q939.9468480887158 417.47068487485774 948.9652881120553 410.5267741859605Q957.9837281353948 403.5828634970633 957.9837281353948 392.17295215763045L957.9837281353948 392.17295215763045Q957.9837281353948 382.83757015264 951.4720110578398 377.53599518684297Q944.931481072862 372.2632331284687 929.5742014165041 369.1514391268052L929.5742014165041 369.1514391268052L907.9933337568194 364.77187719853805Q888.486995431577 360.62281852965344 878.8634843523585 351.2009978023945Q869.211160365717 341.7503641677128 869.211160365717 325.9897038074357L869.211160365717 325.9897038074357Q869.211160365717 316.2509410985259 873.1585286826421 308.2409528349847Q877.0770840921442 300.2597774788663 884.1362464107326 294.55482180914987Q891.1954087293211 288.8498661394335 900.934171438231 285.73807213777Q910.7017470545636 282.6262781361065 922.5150390979157 282.6262781361065L922.5150390979157 282.6262781361065Q935.5960990678716 282.6262781361065 946.890758777613 286.2567044713806Q958.2142313947775 289.8871308066547 967.3191101403854 297.14798347720284L967.3191101403854 297.14798347720284Q969.6241427342102 299.02082245968546 970.4309041420489 301.4122937757787Q971.2664784573103 303.8037650918719 970.6614074014312 305.9647331485827Q970.0275234381295 308.15451411271624 968.4716264372978 309.5951594838568Q966.9157294364661 311.0646177624201 964.5242581203728 311.26630811437974Q962.1327868042795 311.4679984663394 959.2514960619985 309.5951594838568L959.2514960619985 309.5951594838568Q950.9533787242292 303.3715714805298 942.0213774231581 300.5767194605172Q933.0893761220871 297.78186744050464 922.313348745956 297.78186744050464L922.313348745956 297.78186744050464Q911.3068181104426 297.78186744050464 903.3256427543242 301.0953517941278Q895.3444673982058 304.40883614775095 890.8784667476702 310.74767578076916Q886.4124660971347 317.0577025063646 886.4124660971347 325.35581984413386L886.4124660971347 325.35581984413386Q886.4124660971347 335.3250858124262 892.5496153781933 341.1452931118338Q898.6579517518289 346.93668750381863 912.5745860370462 349.64510080156276L912.5745860370462 349.64510080156276L934.1266407893081 354.1975401743668Q955.1024373931139 358.5482891952111 965.1581420836746 367.365038866591Q975.2138467742353 376.1817885379709 975.2138467742353 391.337377842369L975.2138467742353 391.337377842369Q975.2138467742353 400.4710694953998 971.4681688092701 408.13530286986725Q967.7513037517276 415.82834915175755 960.6921414331391 421.3028015620915Q953.6329791145506 426.80606687984823 943.6925260536811 429.716170529552Q933.7232600853888 432.6262741792558 921.2760840787348 432.6262741792558ZM1010.0774647558355 432.1940805679137L1010.0774647558355 432.1940805679137Q1005.9284060869509 432.1940805679137 1003.7386251228174 429.8314221592433Q1001.5488441586838 427.43995084315003 1001.5488441586838 423.2908921742653L1001.5488441586838 423.2908921742653L1001.5488441586838 291.961660141097Q1001.5488441586838 287.6109111202527 1003.7386251228174 285.3346914338507Q1005.9284060869509 283.05847174744866 1010.0774647558355 283.05847174744866L1010.0774647558355 283.05847174744866Q1014.2265234247202 283.05847174744866 1016.387491481431 285.3346914338507Q1018.5772724455644 287.6109111202527 1018.5772724455644 291.961660141097L1018.5772724455644 291.961660141097L1018.5772724455644 423.2908921742653Q1018.5772724455644 427.43995084315003 1016.5027431111222 429.8314221592433Q1014.4282137766799 432.1940805679137 1010.0774647558355 432.1940805679137ZM1051.7697417966417 432.1940805679137L1051.7697417966417 432.1940805679137Q1048.4562574430186 432.1940805679137 1046.4681668308447 430.6381835670819Q1044.5088891260934 429.0822865662502 1044.1919471444426 426.4891248981973Q1043.8750051627917 423.8959632301444 1045.3444634413552 420.58247887652124L1045.3444634413552 420.58247887652124L1102.394020138519 290.7227051219162Q1104.2380462135789 286.57364645303153 1106.831207881632 284.81605910024007Q1109.4243695496848 283.05847174744866 1112.5361635513482 283.05847174744866L1112.5361635513482 283.05847174744866Q1115.6479575530116 283.05847174744866 1118.2411192210645 284.81605910024007Q1120.8342808891175 286.57364645303153 1122.5054295196405 290.7227051219162L1122.5054295196405 290.7227051219162L1179.756676568764 420.58247887652124Q1181.427825199287 423.8959632301444 1181.1108832176362 426.6043765278885Q1180.7939412359854 429.31278982563265 1178.9211022535028 430.7534351967732Q1177.077076178443 432.1940805679137 1173.7347789173969 432.1940805679137L1173.7347789173969 432.1940805679137Q1170.0179138598542 432.1940805679137 1167.7416941734523 430.2348028631626Q1165.4366615796275 428.2755251584115 1163.9960162084872 424.52984719344624L1163.9960162084872 424.52984719344624L1148.6387365521293 389.06115815596695L1156.9368538898984 393.4119071768113L1067.7320925088784 393.4119071768113L1076.2319001986075 389.06115815596695L1061.105123801632 424.52984719344624Q1059.2322848191495 428.4772155103712 1057.1577554847072 430.3500544928538Q1055.0832261502649 432.1940805679137 1051.7697417966417 432.1940805679137ZM1112.7666668107308 304.40883614775095L1112.3344731993886 304.40883614775095L1078.9403134963518 383.03926050459967L1073.9556805122056 379.0918921876747L1150.7132658865717 379.0918921876747L1146.1608265137675 383.03926050459967L1112.7666668107308 304.40883614775095Z " fill="#407d53" transform="matrix(0.7407962481030989,0,0,0.740796248103099,0,35.071805790860054)"/></g></svg>